<?xml version="1.0" encoding="UTF-8" standalone="no"?><!-- Generator: Gravit.io --><svg xmlns="http://www.w3.org/2000/svg" xmlns:xlink="http://www.w3.org/1999/xlink" style="isolation:isolate" viewBox="0 0 500 500" width="500pt" height="500pt"><defs><clipPath id="_clipPath_ssBScvuVJJEsMy1wdSQvwRtlyZTvsNL3"><rect width="500" height="500"/></clipPath></defs><g clip-path="url(#_clipPath_ssBScvuVJJEsMy1wdSQvwRtlyZTvsNL3)"><g><circle vector-effect="non-scaling-stroke" cx="250" cy="250" r="158.25" fill="rgb(220,229,222)"/><g><path d=" M 434.546 382.995 C 434.154 381.261 433.915 379.097 432.921 378.499 C 431.927 377.9 430.062 377.715 429.359 376.981 C 428.656 376.247 427.555 374.063 427.3 372.62 C 427.045 371.175 426.343 370.441 425.681 367.837 C 425.286 366.277 425.28 364.133 425.087 362.31 C 424.957 361.086 424.798 360.195 424.582 359.182 L 425.092 359.961 C 425.092 359.961 425.878 359.115 425.921 357.198 C 425.963 355.323 425.855 353.744 425.897 351.876 C 425.939 350.007 426.291 347.138 426.033 345.838 L 426.628 347.099 C 426.628 347.099 427.575 345.49 427.471 343.762 C 427.366 342.034 427.819 336.817 427.576 334.799 C 427.334 332.78 426.765 332.479 427.376 330.911 C 427.986 329.342 429.044 327.065 429.247 324.48 C 429.449 321.896 429.394 311.539 428.315 308.35 C 427.235 305.161 425.473 300.375 425.225 298.644 C 424.976 296.912 424.914 293.315 423.824 290.558 C 422.736 287.8 422.484 286.213 420.242 283.573 C 418 280.934 417.604 279.343 416.336 278.164 C 415.068 276.984 413.839 274.079 412.741 271.754 C 411.642 269.428 410.832 267.108 410.005 265.507 C 409.177 263.907 409.641 262.479 409.964 260.904 C 410.287 259.329 411.878 258.933 411.878 258.933 L 410.872 258.911 C 410.872 258.911 411.045 257.621 412.502 256.79 C 413.959 255.96 416.697 255.734 417.693 256.187 C 418.69 256.642 420.111 257.393 420.111 257.393 L 419.855 255.949 C 419.855 255.949 420.996 256.59 422.044 257.564 C 422.43 257.921 422.768 258.652 423.423 259.386 C 424.077 260.12 425.075 260.525 425.075 260.525 L 424.992 259.996 C 424.992 259.996 425.747 260.697 426.511 260.927 C 427.039 261.085 427.621 261.241 428.078 261.312 C 430.228 261.648 431.009 261.042 431.009 261.042 L 430.404 260.214 C 430.404 260.214 431.64 260.672 431.919 261.11 C 431.919 261.11 432.561 260.262 432.462 258.246 C 432.364 256.23 431.955 255.214 431.119 254.044 L 431.758 254.418 C 431.758 254.418 430.195 250.356 427.926 248.939 C 425.656 247.52 423.944 246.907 423.944 246.907 C 423.944 246.907 425.107 246.358 425.462 246.582 C 425.462 246.582 421.997 243.987 417.825 243.964 C 413.655 243.942 411.343 244.394 411.343 244.394 L 411.935 243.616 C 411.935 243.616 409.355 243.199 405.215 245.048 C 401.074 246.897 399.341 250.381 399.341 250.381 L 399.233 248.796 C 399.233 248.796 397.35 249.4 396.373 254.485 C 395.395 259.569 395.14 264.525 395.887 266.484 C 395.887 266.484 394.977 265.385 394.841 265.023 C 394.841 265.023 394.202 267.885 395.012 270.205 C 395.823 272.524 398.2 275.527 398.2 275.527 C 398.2 275.527 395.409 274.913 393.212 274.576 C 391.014 274.239 381.813 274.032 378.452 274.244 C 375.091 274.455 371.856 273.327 368.495 273.54 C 365.134 273.752 361.372 274.722 361.372 274.722 C 361.372 274.722 357.492 272.43 355.002 272.278 C 352.513 272.126 349.53 272.538 349.53 272.538 C 349.53 272.538 347.84 270.966 345.454 270.433 C 343.07 269.9 340.398 269.265 340.398 269.265 C 340.398 269.265 341.844 268.913 342.514 269.025 C 342.514 269.025 341.474 268.331 339.187 267.704 C 336.9 267.078 336.163 265.718 334.917 265.69 C 333.671 265.662 331.507 263.792 331.507 263.792 C 331.507 263.792 327.905 261.984 326.571 261.571 C 325.238 261.157 324.214 259.792 322.983 259.093 C 321.752 258.394 313.193 251.01 309.914 251.799 C 306.637 252.588 306.948 255.76 307.071 258.83 C 307.164 261.146 307.487 265.935 307.487 265.935 C 307.487 265.935 304.555 268.363 303.179 269.866 C 301.803 271.369 300.908 272.788 300.008 274.397 C 299.109 276.007 297.82 277.896 297.391 279.899 C 296.963 281.904 296.616 284.484 296.616 284.484 C 296.616 284.484 288.44 285.643 285.678 289.032 C 282.917 292.422 287.286 294.246 289.361 295.827 C 291.435 297.408 296.176 299.816 296.176 299.816 C 296.176 299.816 297.418 304.255 298.333 306.193 C 298.946 307.492 300.666 309.244 302.011 310.842 C 301.741 311.05 301.468 311.266 301.194 311.501 C 300.839 311.83 300.44 312.134 300.094 312.51 C 299.743 312.871 299.36 313.245 299.039 313.637 C 298.374 314.45 297.799 315.296 297.285 316.112 C 297.256 316.159 297.229 316.204 297.201 316.25 C 296.982 316.324 296.767 316.394 296.565 316.454 C 295.909 316.641 295.358 316.8 294.966 316.89 C 294.574 316.981 294.35 317.034 294.35 317.034 C 294.35 317.034 294.582 317.042 294.985 317.012 C 295.387 316.978 295.967 316.934 296.648 316.793 C 296.729 316.776 296.817 316.757 296.902 316.74 C 296.553 317.329 296.246 317.89 295.971 318.388 C 295.6 319.062 295.332 319.645 295.135 320.046 C 294.942 320.451 294.843 320.688 294.843 320.688 C 294.843 320.688 295.405 319.834 296.248 318.554 C 296.626 317.965 297.085 317.298 297.573 316.587 C 297.631 316.572 297.687 316.561 297.746 316.545 C 298.135 316.449 298.535 316.312 298.947 316.162 C 299.36 316.015 299.773 315.825 300.186 315.617 C 300.604 315.408 301.016 315.151 301.383 314.89 C 301.777 314.608 302.131 314.317 302.475 314.006 C 302.812 313.694 303.136 313.379 303.431 313.058 C 303.461 313.025 303.488 312.993 303.517 312.96 C 303.528 312.98 303.541 313.002 303.551 313.022 C 303.721 313.383 303.999 313.705 304.351 313.996 C 304.307 314.097 304.262 314.196 304.215 314.298 C 304.064 314.692 303.904 315.101 303.778 315.53 C 303.729 315.751 303.678 315.974 303.629 316.197 L 303.592 316.365 C 303.585 316.4 303.58 316.406 303.572 316.465 L 303.564 316.547 L 303.536 316.878 C 303.49 317.313 303.498 317.771 303.509 318.223 C 303.509 318.676 303.575 319.098 303.603 319.518 C 303.695 320.348 303.808 321.115 303.903 321.77 C 303.939 322.097 303.998 322.398 304.02 322.664 C 304.042 322.93 304.073 323.164 304.078 323.356 C 304.068 323.736 304.07 323.964 304.07 323.964 C 304.07 323.964 304.118 323.75 304.19 323.361 C 304.214 323.167 304.218 322.93 304.235 322.656 C 304.253 322.383 304.238 322.078 304.232 321.742 C 304.211 321.074 304.159 320.3 304.108 319.477 C 304.095 319.07 304.063 318.637 304.065 318.218 C 304.06 317.798 304.057 317.371 304.109 316.925 L 304.133 316.594 L 304.139 316.511 L 304.153 316.448 L 304.185 316.293 C 304.229 316.085 304.272 315.878 304.314 315.674 C 304.431 315.268 304.554 314.866 304.686 314.481 C 304.711 314.419 304.733 314.358 304.757 314.296 C 305.11 314.531 305.515 314.742 305.946 314.935 C 305.934 314.995 305.923 315.054 305.911 315.115 C 305.854 315.521 305.796 315.94 305.736 316.366 C 305.708 316.796 305.679 317.234 305.651 317.671 C 305.66 318.106 305.669 318.542 305.677 318.97 C 305.708 319.402 305.756 319.827 305.795 320.237 C 305.905 321.048 306.047 321.797 306.2 322.431 C 306.511 323.7 306.838 324.507 306.838 324.507 C 306.838 324.507 306.803 324.293 306.743 323.919 C 306.678 323.546 306.614 323.01 306.525 322.372 C 306.487 322.053 306.446 321.705 306.403 321.339 C 306.37 320.973 306.335 320.587 306.298 320.187 C 306.276 319.79 306.263 319.379 306.232 318.964 C 306.23 318.543 306.228 318.115 306.224 317.685 C 306.246 317.261 306.268 316.836 306.289 316.418 C 306.331 316 306.371 315.588 306.411 315.19 C 306.413 315.171 306.416 315.155 306.418 315.137 C 306.673 315.239 306.933 315.337 307.199 315.428 C 307.314 316.281 307.437 317.188 307.56 318.096 C 307.617 318.556 307.686 319.026 307.782 319.474 C 307.883 319.938 307.999 320.381 308.147 320.799 C 308.291 321.218 308.44 321.62 308.616 321.985 C 308.783 322.354 308.958 322.693 309.127 323.003 C 309.454 323.625 309.8 324.102 310.035 324.435 C 310.275 324.767 310.433 324.938 310.433 324.938 C 310.433 324.938 309.976 324.122 309.434 322.853 C 309.16 322.219 308.893 321.46 308.649 320.642 C 308.532 320.231 308.425 319.803 308.336 319.373 C 308.252 318.924 308.189 318.476 308.121 318.017 C 308.005 317.195 307.868 316.381 307.727 315.602 C 308.811 315.945 309.905 316.211 310.759 316.446 C 313.046 317.072 316.122 316.758 316.122 316.758 C 316.122 316.758 318.472 323.139 320.528 325.486 C 322.585 327.834 324.276 329.406 324.276 329.406 C 324.276 329.406 325.898 334.046 327.954 336.393 C 330.011 338.741 332.242 341.859 333.737 343.618 C 335.231 345.378 337.798 350.614 339.284 352.757 C 340.77 354.9 340.016 354.307 341.294 357.213 C 342.571 360.118 344.205 364.183 344.153 366.482 C 344.101 368.784 344.438 370.9 343.049 372.978 C 341.66 375.056 340.501 375.414 338.554 376.713 C 336.607 378.011 335.27 377.789 335.043 379.319 C 334.817 380.847 334.756 383.53 336.098 383.56 C 337.44 383.59 338.773 384.004 338.773 384.004 C 338.773 384.004 340.477 385.001 342.197 385.232 C 343.918 385.462 345.081 384.914 345.081 384.914 C 345.081 384.914 345.422 386.84 347.709 387.466 C 349.997 388.093 351.738 387.365 351.738 387.365 C 351.738 387.365 352.684 387.961 354.4 388.383 C 356.117 388.808 357.092 388.061 357.092 388.061 C 357.092 388.061 359.379 388.689 360.912 388.723 C 362.445 388.757 363.796 388.404 364.035 386.299 C 364.274 384.194 364.87 383.25 364.87 383.25 C 364.87 383.25 367.554 383.311 369.859 383.171 C 372.163 383.029 373.905 382.303 375.269 381.374 C 376.633 380.446 379.559 378.21 381.481 378.063 C 383.402 377.913 386.517 375.874 387.296 375.318 C 388.076 374.757 390.04 372.693 390.288 370.206 C 390.536 367.719 391.717 366.403 392.129 365.07 C 392.543 363.736 392.203 362.841 392.727 361.99 C 393.249 361.139 393.546 360.715 393.546 360.715 L 393.964 361.299 C 393.964 361.299 394.707 360.238 394.73 359.232 C 394.752 358.226 394.992 357.176 395.155 356.317 C 395.318 355.458 395.63 354.362 395.63 354.362 L 395.8 355.325 C 395.8 355.325 396.995 354.441 397.383 353.155 C 397.771 351.87 398.476 349.32 399.008 348.038 C 399.54 346.755 400.071 345.544 400.442 345.049 C 400.813 344.554 402.985 343.884 402.985 343.884 C 402.985 343.884 403.561 347.061 403.963 348.364 C 404.365 349.668 405.022 352.415 405.722 353.294 L 405.902 351.715 C 405.902 351.715 406.415 354.46 407.393 355.776 C 408.37 357.093 408.913 358.543 409.736 360.287 C 410.56 362.033 412.099 363.937 412.099 363.937 C 412.099 363.937 412.783 365.535 413.181 366.981 C 413.58 368.429 414.257 370.315 414.669 371.186 C 415.081 372.059 416.159 375.246 416.277 376.401 C 416.395 377.553 416.628 380.004 416.628 380.004 C 416.628 380.004 416.128 383.014 416.968 384.037 C 417.809 385.064 420.115 384.829 420.115 384.829 C 420.115 384.829 421.975 385.303 423.694 385.629 C 425.412 385.954 426.438 385.115 426.438 385.115 C 426.438 385.115 427.716 385.862 429.298 385.897 C 430.879 385.932 431.473 385.084 431.473 385.084 C 431.473 385.084 432.754 385.688 433.48 385.416 C 434.211 385.146 434.939 384.73 434.546 382.995 Z  M 303.098 312.727 C 302.789 313.019 302.47 313.32 302.131 313.606 C 301.79 313.886 301.431 314.173 301.075 314.422 C 300.688 314.686 300.314 314.905 299.929 315.112 C 299.54 315.32 299.141 315.497 298.754 315.666 C 298.505 315.77 298.261 315.865 298.02 315.957 C 298.478 315.305 298.958 314.634 299.482 314.009 C 299.805 313.607 300.15 313.264 300.495 312.899 C 300.829 312.534 301.201 312.211 301.537 311.878 C 301.802 311.637 302.051 311.41 302.301 311.184 C 302.689 311.66 303.03 312.118 303.289 312.54 C 303.225 312.602 303.164 312.664 303.098 312.727 Z  M 372.12 370.37 C 369.641 371.897 367.749 372.861 367.749 372.861 C 367.921 371.571 369.574 368.443 369.574 368.443 C 369.574 368.443 370.038 367.015 370.355 365.728 C 370.672 364.441 370.698 363.29 371.03 361.285 C 371.33 359.472 373.756 353.896 373.786 353.867 C 373.786 353.867 374.412 359.732 374.918 361.086 C 375.461 362.536 375.253 365.406 375.354 367.279 C 375.455 369.151 374.598 368.844 372.12 370.37 Z " fill="rgb(0,29,68)"/><path d=" M 308.428 368.566 C 307.99 367.47 307.441 365.168 305.578 363.523 C 303.714 361.878 301.412 361.221 301.412 361.221 C 301.083 360.564 300.097 358.809 298.343 357.713 C 296.589 356.617 293.739 356.945 292.424 355.85 C 291.108 354.753 288.916 348.066 288.258 345.107 C 287.601 342.147 287.382 340.284 287.272 337.324 C 287.163 334.364 285.409 330.308 284.422 328.007 C 283.436 325.705 283.326 323.074 283.326 323.074 L 283.984 323.732 C 283.984 321.759 283.436 318.799 283.107 316.607 C 282.778 314.415 282.449 312.112 282.449 308.605 C 282.449 305.097 282.997 298.629 283.217 296.437 C 283.436 294.245 282.778 293.039 282.449 291.504 C 282.12 289.969 281.791 286.681 281.791 286.681 L 282.449 288.216 C 282.34 286.681 282.011 284.599 282.12 283.174 C 282.23 281.749 282.997 278.131 283.107 274.843 C 283.217 271.555 282.23 268.047 282.559 266.073 C 282.888 264.1 283.655 260.921 283.984 257.413 C 284.313 253.905 284.093 251.164 284.093 251.164 L 284.641 253.028 C 284.641 253.028 284.75 247.876 284.532 245.245 C 284.312 242.614 283.984 238.339 283.764 236.366 C 283.545 234.393 282.449 232.529 281.791 230.228 C 281.133 227.926 281.352 224.966 281.352 224.966 L 281.9 226.391 C 281.9 226.391 282.448 224.637 282.01 222.225 C 281.571 219.813 280.667 215.373 280.42 212.167 C 280.174 208.961 278.2 204.932 278.2 204.932 C 278.2 204.932 280.036 201.287 280.256 198.108 C 280.475 194.929 280.256 194.052 280.914 191.75 C 281.572 189.448 282.12 188.132 283.106 186.05 C 284.092 183.967 284.202 181.117 284.202 181.117 C 284.202 181.117 284.75 182.213 285.188 183.748 C 285.627 185.283 285.736 185.063 285.517 188.462 C 285.298 191.86 286.394 197.779 287.052 198.875 C 287.71 199.972 290.231 201.726 290.67 201.396 C 291.108 201.067 291.766 200.409 291.985 199.094 C 292.204 197.778 291.546 193.284 291.656 192.517 C 291.766 191.75 294.945 189.777 296.041 188.242 C 297.137 186.707 296.37 184.625 295.603 182.432 C 294.836 180.24 294.617 177.389 294.178 174.978 C 293.739 172.567 291.547 168.181 290.341 165.77 C 289.135 163.358 287.272 160.07 286.395 158.644 C 285.518 157.219 285.079 154.478 284.532 152.067 C 283.984 149.655 281.024 147.682 280.147 146.476 C 279.27 145.27 276.858 142.858 275.324 142.201 C 273.789 141.543 272.693 142.31 272.693 142.31 C 271.871 140.447 267.267 136.938 262.991 135.458 C 258.716 133.979 252.797 133.156 252.797 133.156 C 252.797 133.156 247.535 131.841 240.464 133.485 C 233.394 135.13 228.954 139.734 228.954 139.734 C 228.954 139.734 225.665 140.227 223.035 141.049 C 220.404 141.871 216.787 143.844 214.156 147.133 C 211.525 150.422 211.525 151.244 209.881 154.697 C 208.236 158.15 202.81 162.425 201.002 165.056 C 199.193 167.687 198.864 169.495 199.357 172.949 C 199.85 176.402 199.85 177.224 200.015 180.349 C 200.18 183.473 205.77 189.722 208.072 191.694 C 210.374 193.668 211.361 193.668 212.018 196.133 C 212.676 198.6 211.853 201.724 213.498 201.231 C 214.208 201.018 215.8 198.929 216.293 197.285 C 216.504 196.582 217.559 194.966 217.938 193.668 C 218.445 191.932 217.445 185.117 217.445 185.117 C 217.445 185.23 217.938 187.09 218.925 189.064 C 219.911 191.037 220.076 190.543 220.569 192.681 C 221.062 194.819 219.443 196.54 219.089 197.285 C 218.323 198.893 215.827 201.369 215.142 202.054 C 213.663 203.534 211.524 204.685 208.894 208.467 C 206.263 212.249 202.152 215.538 199.357 219.32 C 196.562 223.102 193.931 231.159 193.931 231.159 C 193.931 231.159 188.833 234.941 184.394 239.709 C 179.955 244.478 178.146 250.397 173.213 255.494 C 168.28 260.591 158.414 269.471 155.948 272.759 C 153.481 276.048 146.082 283.118 142.629 286.078 C 139.176 289.038 135.723 293.642 131.612 299.232 C 127.502 304.823 121.746 317.648 121.746 317.648 C 121.746 317.648 117.964 323.897 115.333 328.501 C 112.702 333.105 112.702 341.82 112.373 342.313 C 112.044 342.806 110.728 345.273 109.742 345.108 C 108.756 344.944 102.507 347.41 98.889 348.397 C 95.272 349.383 90.339 349.383 87.707 349.219 C 85.077 349.054 79.321 349.877 76.526 349.712 C 73.73 349.548 70.935 348.232 70.935 348.232 C 70.935 348.232 66.496 347.081 62.549 346.753 C 58.602 346.424 51.367 347.903 51.367 347.903 C 50.38 347.574 45.119 347.739 41.501 349.054 C 40.206 349.525 38.925 349.766 37.665 350.369 C 36.404 350.972 35.527 351.959 35.527 351.959 L 36.13 351.904 C 36.13 351.904 35.47 352.357 34.924 352.78 C 34.378 353.203 34.126 353.656 34.047 353.876 C 33.857 354.407 34.166 354.934 34.595 355.63 C 34.977 356.25 36.055 357.676 36.055 357.676 L 35.417 357.494 C 35.417 357.494 36.283 358.687 36.897 359.083 C 37.499 359.472 38.615 359.831 38.815 360.015 C 40.788 361.824 45.611 362.207 45.611 362.207 C 45.611 362.207 49.064 363.029 51.366 364.509 C 53.668 365.989 57.943 367.634 65.178 367.798 C 72.413 367.962 73.235 367.798 73.235 367.798 L 71.591 368.456 C 71.591 368.456 72.742 369.278 78.168 370.429 C 83.594 371.579 91.322 370.1 96.42 369.443 C 101.517 368.785 109.739 367.634 109.739 367.634 C 109.739 367.634 110.397 368.784 112.863 370.265 C 115.329 371.744 124.373 373.389 124.373 373.389 C 124.373 373.389 123.715 375.363 127.004 377.335 C 130.293 379.308 131.444 380.295 136.212 379.802 C 140.98 379.308 160.219 382.268 168.441 382.268 C 176.663 382.268 190.31 382.433 193.27 382.761 C 196.23 383.09 197.216 384.57 199.354 385.392 C 201.492 386.214 205.273 385.392 205.273 385.392 C 207.575 386.05 208.397 385.556 209.713 385.392 C 211.028 385.228 211.686 383.583 211.686 383.583 C 212.179 383.748 214.317 383.419 215.139 382.926 C 215.961 382.433 215.961 380.295 214.646 378.65 C 213.331 377.007 211.851 377.336 210.7 376.349 C 209.549 375.363 208.233 374.704 205.109 373.718 C 201.985 372.732 198.696 370.21 198.696 370.21 C 199.354 369.991 202.313 368.784 203.958 368.675 C 205.602 368.566 208.014 367.579 209.549 366.373 C 211.084 365.167 211.522 363.961 213.166 361.44 C 214.575 359.28 214.856 357.366 214.909 356.86 C 214.909 356.814 214.913 356.769 214.92 356.726 C 214.92 356.726 214.917 356.775 214.909 356.86 C 214.894 357.522 215.468 358.48 215.468 358.48 C 215.577 357.165 216.784 355.63 218.209 353.328 C 219.634 351.026 221.388 348.176 221.388 348.176 C 221.388 348.176 224.238 354.973 224.677 357.165 C 225.115 359.356 225.335 362.207 225.554 364.948 C 225.773 367.688 227.418 369.333 227.418 369.333 C 227.309 368.784 227.308 367.359 227.308 367.359 C 227.308 367.359 228.953 370.868 230.049 372.731 C 231.145 374.594 233.447 375.909 235.201 376.567 C 236.955 377.225 239.696 379.747 240.902 380.733 C 242.107 381.719 243.094 382.925 245.067 384.46 C 247.041 385.995 246.054 387.42 247.588 388.517 C 249.123 389.613 251.315 389.394 253.507 390.271 C 255.699 391.147 257.453 390.38 260.633 391.147 C 263.812 391.915 265.895 390.709 267.978 390.38 C 270.061 390.052 272.362 389.503 272.362 389.503 C 272.362 389.503 274.555 389.612 276.528 389.942 C 278.501 390.271 281.68 389.285 282.447 388.955 C 283.214 388.627 284.31 388.846 285.078 388.517 C 285.845 388.187 285.845 387.749 285.845 387.749 C 285.845 387.749 287.051 387.749 287.819 387.749 C 288.586 387.749 290.449 386.653 290.449 386.653 C 290.449 386.653 291.874 387.2 292.094 386.762 C 292.313 386.322 290.778 385.227 290.778 385.227 C 290.778 385.227 290.778 384.241 290.34 382.815 C 289.901 381.391 288.586 380.952 287.49 379.198 C 286.394 377.444 284.092 376.018 284.092 376.018 C 284.092 376.018 286.613 375.909 288.257 376.128 C 289.902 376.348 290.998 376.018 291.875 375.689 C 292.752 375.361 292.972 374.703 292.972 374.703 C 292.972 374.703 296.37 375.141 298.015 375.251 C 299.659 375.361 301.851 374.703 303.277 374.265 C 304.702 373.826 306.346 373.608 306.894 373.717 C 307.442 373.826 308.1 374.265 308.319 373.497 C 308.538 372.73 307.771 371.195 307.771 371.195 C 307.771 371.195 309.087 371.414 309.196 370.756 C 309.305 370.101 308.866 369.662 308.428 368.566 Z  M 274.336 372.897 C 271.869 372.239 270.225 371.911 268.252 371.088 C 266.279 370.266 265.128 369.443 263.648 366.484 C 262.168 363.524 260.195 362.702 258.879 360.236 C 257.564 357.769 257.399 355.631 257.07 352.671 C 256.741 349.711 256.412 346.258 255.425 342.97 C 254.438 339.682 253.123 338.037 252.63 334.749 C 252.137 331.46 251.151 324.718 251.151 324.718 C 255.755 322.581 259.044 318.635 259.044 318.635 C 259.044 318.635 259.044 319.786 258.879 321.43 C 258.715 323.075 259.044 324.719 259.044 324.719 C 259.373 323.897 259.702 322.582 259.702 322.582 C 259.702 323.897 260.853 326.693 261.017 328.665 C 261.182 330.638 261.072 332.228 260.578 334.695 C 260.085 337.161 261.071 339.189 261.071 339.189 L 261.674 337.654 C 261.674 337.654 261.729 341.984 262.496 344.779 C 263.264 347.574 263.647 346.753 264.798 347.903 C 265.949 349.054 266.607 349.712 267.594 352.672 C 268.58 355.632 269.403 360.401 270.225 362.867 C 271.047 365.333 271.047 366.155 272.362 368.129 C 273.678 370.102 273.185 369.444 275.651 370.102 C 278.117 370.76 280.584 373.556 280.584 373.556 C 278.94 372.567 276.802 373.555 274.336 372.897 Z " fill="rgb(0,29,68)"/></g></g></g></svg>